HIERARCHY
ROOT Hips
{
	OFFSET 0.000000 0.000000 0.000000
	CHANNELS 6 Xposition Yposition Zposition Xrotation Yrotation Zrotation
	JOINT Spine
	{
		OFFSET 0.000000 0.044490 0.066735
		CHANNELS 3 Xrotation Yrotation Zrotation
		JOINT Spine1
		{
			OFFSET 0.000000 0.015451 0.087628
			CHANNELS 3 Xrotation Yrotation Zrotation
			JOINT Spine2
			{
				OFFSET 0.000000 0.007755 0.088641
				CHANNELS 3 Xrotation Yrotation Zrotation
				JOINT Spine3
				{
					OFFSET 0.000000 0.000000 0.088980
					CHANNELS 3 Xrotation Yrotation Zrotation
					JOINT Neck
					{
						OFFSET 0.000000 -0.033367 0.233572
						CHANNELS 3 Xrotation Yrotation Zrotation
						JOINT Head
						{
							OFFSET 0.000000 -0.021245 0.120488
							CHANNELS 3 Xrotation Yrotation Zrotation
							End Site
							{
								OFFSET 0.000000 0.000000 0.000000
							}
						}
					}
					JOINT RightShoulder
					{
						OFFSET -0.026917 -0.044862 0.145355
						CHANNELS 3 Xrotation Yrotation Zrotation
						JOINT RightArm
						{
							OFFSET -0.133690 0.000000 0.000000
							CHANNELS 3 Xrotation Yrotation Zrotation
							JOINT RightForeArm
							{
								OFFSET -0.257725 0.000000 0.000000
								CHANNELS 3 Xrotation Yrotation Zrotation
								JOINT RightHand
								{
									OFFSET -0.216749 0.000000 0.000000
									CHANNELS 3 Xrotation Yrotation Zrotation
									JOINT RightHandEnd
									{
										OFFSET -0.062518 0.000000 0.000000
										CHANNELS 3 Xrotation Yrotation Zrotation
										End Site
										{
											OFFSET 0.000000 0.000000 0.000000
										}
									}
									JOINT RightHandThumb1
									{
										OFFSET -0.025007 -0.041679 -0.016672
										CHANNELS 3 Xrotation Yrotation Zrotation
										End Site
										{
											OFFSET 0.000000 0.000000 0.000000
										}
									}
								}
							}
						}
					}
					JOINT LeftShoulder
					{
						OFFSET 0.026917 -0.044862 0.145355
						CHANNELS 3 Xrotation Yrotation Zrotation
						JOINT LeftArm
						{
							OFFSET 0.133690 0.000000 0.000000
							CHANNELS 3 Xrotation Yrotation Zrotation
							JOINT LeftForeArm
							{
								OFFSET 0.257725 0.000000 0.000000
								CHANNELS 3 Xrotation Yrotation Zrotation
								JOINT LeftHand
								{
									OFFSET 0.216749 0.000000 0.000000
									CHANNELS 3 Xrotation Yrotation Zrotation
									JOINT LeftHandEnd
									{
										OFFSET 0.062518 0.000000 0.000000
										CHANNELS 3 Xrotation Yrotation Zrotation
										End Site
										{
											OFFSET 0.000000 0.000000 0.000000
										}
									}
									JOINT LeftHandThumb1
									{
										OFFSET 0.025007 -0.041679 -0.016672
										CHANNELS 3 Xrotation Yrotation Zrotation
										End Site
										{
											OFFSET 0.000000 0.000000 0.000000
										}
									}
								}
							}
						}
					}
				}
			}
		}
	}
	JOINT RightUpLeg
	{
		OFFSET -0.079855 0.000000 -0.023329
		CHANNELS 3 Xrotation Yrotation Zrotation
		JOINT RightLeg
		{
			OFFSET 0.000000 0.000000 -0.366572
			CHANNELS 3 Xrotation Yrotation Zrotation
			JOINT RightFoot
			{
				OFFSET 0.000000 0.000000 -0.363650
				CHANNELS 3 Xrotation Yrotation Zrotation
				JOINT RightToeBase
				{
					OFFSET 0.000000 -0.114715 -0.041753
					CHANNELS 3 Xrotation Yrotation Zrotation
					End Site
					{
						OFFSET 0.000000 0.000000 0.000000
					}
				}
			}
		}
	}
	JOINT LeftUpLeg
	{
		OFFSET 0.079855 0.000000 -0.023329
		CHANNELS 3 Xrotation Yrotation Zrotation
		JOINT LeftLeg
		{
			OFFSET 0.000000 0.000000 -0.366572
			CHANNELS 3 Xrotation Yrotation Zrotation
			JOINT LeftFoot
			{
				OFFSET 0.000000 0.000000 -0.363650
				CHANNELS 3 Xrotation Yrotation Zrotation
				JOINT LeftToeBase
				{
					OFFSET 0.000000 -0.114715 -0.041753
					CHANNELS 3 Xrotation Yrotation Zrotation
					End Site
					{
						OFFSET 0.000000 0.000000 0.000000
					}
				}
			}
		}
	}
}
MOTION
Frames: 10
Frame Time: 0.033333
-0.159283 -0.769516 0.799285 -3.426000 -6.083000 -50.483300 -1.006300 2.955900 0.466400 -0.350800 0.175400 -0.016000 -0.424400 2.361900 -0.262000 0.793000 -0.196800 -0.357200 -3.993100 -7.599900 4.215900 2.360600 1.103800 12.020000 -15.806100 12.724700 16.333900 -80.412300 -7.418800 23.852100 0.000000 0.000100 93.843700 0.878800 61.491700 -6.012600 0.000000 0.000000 0.000000 0.000000 0.000000 0.000000 2.016700 11.616600 -16.019800 30.924800 44.387900 -23.968300 -0.000100 0.000000 -120.691700 32.402500 -51.370900 -7.711200 0.000000 0.000000 0.000000 0.000000 0.000000 0.000000 -17.488400 11.489500 -42.611100 29.058700 0.000000 0.000000 -16.382200 11.526000 -26.805400 -24.057500 0.000000 0.000000 20.303200 10.126800 40.159200 0.899000 0.000000 0.000000 13.469500 24.248100 10.198800 -29.113200 0.000000 0.000000 
-0.172888 -0.768551 0.797446 -3.912200 -5.806900 -60.221000 -1.396200 2.807400 0.846800 -0.808400 0.166400 0.013700 -0.068800 4.301500 -0.835500 0.724000 0.438900 -1.085300 -7.309800 -7.420700 -0.116800 3.629700 0.784900 6.944000 -13.945500 8.145800 15.550300 -84.760700 -8.673400 21.220300 0.000000 0.000100 95.149500 -4.731000 62.918600 -6.940800 0.000000 0.000000 0.000000 0.000000 0.000000 0.000000 1.827100 11.101000 -15.665900 30.391000 43.573900 -24.154400 -0.000100 0.000000 -120.886500 32.054700 -51.034300 -7.973000 0.000000 0.000000 0.000000 0.000000 0.000000 0.000000 -16.490500 7.762500 -38.198800 27.145200 0.000000 0.000000 -17.784100 10.341300 -22.735400 -22.516900 0.000000 0.000000 18.592600 9.366800 37.592500 7.939300 0.000000 0.000000 14.716500 25.227200 10.756500 -36.208400 0.000000 0.000000 
-0.187874 -0.763293 0.797730 -2.976600 -5.605100 -68.901700 -2.159600 2.198200 0.866200 -1.732900 -0.352300 -0.046400 0.691100 6.110700 -1.917200 0.651400 1.270500 -1.978800 -11.012600 -7.101800 -5.629000 6.012100 -0.097400 1.227600 -11.235800 2.075900 14.229100 -88.364000 -10.054500 18.419500 0.000000 0.000100 96.825500 -11.454400 63.563800 -5.896300 0.000000 0.000000 0.000000 0.000000 0.000000 0.000000 1.807000 10.212200 -15.525400 30.016600 42.707600 -23.851300 -0.000100 0.000000 -120.833900 31.668600 -49.887200 -8.384900 0.000000 0.000000 0.000000 0.000000 0.000000 0.000000 -15.444200 2.372600 -30.243600 22.952200 0.000000 0.000000 -17.741700 9.100700 -20.966500 -17.748500 0.000000 0.000000 13.297300 5.454600 32.063900 20.221600 0.000000 0.000000 19.361600 21.841400 8.625700 -42.469200 0.000000 0.000000 
-0.200934 -0.755823 0.796811 -0.951800 -5.551400 -76.957200 -2.763200 1.369800 0.367000 -2.359500 -0.545800 -0.133900 1.114000 6.090200 -3.463800 0.464000 1.973400 -2.707300 -14.049400 -5.557400 -11.152000 8.607100 -2.111600 -5.141800 -8.096600 -3.484400 13.232400 -90.303400 -11.412500 14.769500 0.000000 0.000100 98.683900 -18.052800 63.882900 -4.055400 0.000000 0.000000 0.000000 0.000000 0.000000 0.000000 2.090900 8.404900 -15.856700 29.730200 42.709800 -23.620800 -0.000100 0.000000 -120.798400 30.413100 -48.050800 -8.163500 0.000000 0.000000 0.000000 0.000000 0.000000 0.000000 -14.589900 -3.149100 -22.420300 19.589400 0.000000 0.000000 -17.045000 7.888500 -20.846500 -11.501600 0.000000 0.000000 6.315300 0.354200 26.444500 34.166300 0.000000 0.000000 23.818100 14.059300 4.715800 -37.778200 0.000000 0.000000 
-0.211950 -0.750070 0.794636 0.409300 -5.397500 -85.881200 -2.790100 0.906200 0.009100 -2.369900 -0.198800 -0.165000 1.203300 5.223600 -4.857900 0.367700 2.501800 -3.198700 -15.518400 -3.811700 -16.435200 9.498800 -4.503500 -11.680400 -5.410500 -8.750900 12.659500 -89.545900 -13.028100 10.866800 0.000000 0.000100 100.643300 -22.792300 63.942300 -2.744800 0.000000 0.000000 0.000000 0.000000 0.000000 0.000000 2.435900 5.810800 -16.540400 28.835000 42.295400 -22.462500 -0.000100 0.000000 -121.227100 26.887600 -45.331400 -8.492400 0.000000 0.000000 0.000000 0.000000 0.000000 0.000000 -13.227100 -6.938200 -16.535500 18.148700 0.000000 0.000000 -16.786800 6.318200 -18.306400 -6.178400 0.000000 0.000000 -0.110100 -3.233900 21.846400 46.696900 0.000000 0.000000 22.932700 10.182700 5.273100 -27.932800 0.000000 0.000000 
-0.221130 -0.746420 0.792386 0.843000 -5.559400 -96.159800 -2.746300 0.773900 -0.117200 -2.438300 0.227300 -0.155300 1.329500 4.759200 -5.794600 0.515600 2.994600 -3.511400 -15.348800 -2.694700 -21.690300 8.358200 -6.687900 -17.793600 -3.157100 -14.401300 12.489600 -86.137100 -15.523500 7.388200 -0.000100 0.000100 102.693200 -24.736200 63.765100 -2.402800 0.000000 0.000000 0.000000 0.000000 0.000000 0.000000 2.921300 3.106000 -16.843700 26.888700 39.566200 -19.078200 -0.000100 0.000000 -122.219600 21.987200 -41.022500 -10.040000 0.000000 0.000000 0.000000 0.000000 0.000000 0.000000 -11.784300 -9.196700 -10.747200 17.409900 0.000000 0.000000 -16.383100 5.245900 -14.150600 -2.239100 0.000000 0.000000 -6.549800 -5.322100 18.536600 56.973900 0.000000 0.000000 17.819800 11.233200 11.164100 -23.902700 0.000000 0.000000 
-0.231452 -0.744286 0.791350 0.886300 -5.699400 -107.798500 -2.804000 0.550600 -0.151000 -2.570800 0.593600 -0.114700 1.551200 4.384100 -6.294700 0.732800 3.434500 -3.566100 -14.267400 -1.519500 -26.233800 7.044700 -8.770600 -23.268000 -0.324100 -19.316000 12.662700 -80.802700 -19.577000 4.190400 -0.000100 0.000100 105.005500 -25.296100 63.433200 -2.007900 0.000000 0.000000 0.000000 0.000000 0.000000 0.000000 4.060500 0.974200 -15.836800 24.914700 34.423700 -14.163200 -0.000100 0.000000 -123.333500 18.885500 -35.508700 -10.985400 0.000000 0.000000 0.000000 0.000000 0.000000 0.000000 -9.797300 -10.748700 -3.846300 16.326600 0.000000 0.000000 -15.446000 4.929800 -10.111200 0.343100 0.000000 0.000000 -11.723800 -7.110600 16.895700 63.369800 0.000000 0.000000 11.373900 10.410400 17.142400 -24.591500 0.000000 0.000000 
-0.245298 -0.743186 0.792137 0.916200 -5.299400 -120.531300 -2.677200 0.243600 -0.135000 -2.395800 0.852200 -0.066200 1.707100 3.704700 -6.230500 0.815300 3.729700 -3.350400 -13.248100 0.104400 -29.342900 6.915100 -10.490900 -28.171900 3.217600 -22.242300 12.824000 -73.699100 -25.189400 1.347200 -0.000100 0.000100 107.536700 -26.305500 62.675900 -0.669300 0.000000 0.000000 0.000000 0.000000 0.000000 0.000000 5.549300 -0.655900 -13.358700 24.698600 29.043000 -9.619200 -0.000100 0.000000 -124.104900 18.348500 -30.013800 -10.291000 0.000000 0.000000 0.000000 0.000000 0.000000 0.000000 -6.897300 -11.305300 3.336000 15.282000 0.000000 0.000000 -14.433200 4.113200 -5.590100 1.135700 0.000000 0.000000 -14.285500 -8.814400 16.628100 65.220200 0.000000 0.000000 5.876800 6.020600 18.863900 -25.103900 0.000000 0.000000 
-0.261305 -0.743224 0.794154 0.863400 -4.713900 -133.705100 -2.384100 0.048100 -0.089400 -2.030300 0.888900 -0.034800 1.641900 3.010900 -5.604900 0.773200 3.867100 -3.014900 -12.407400 1.639200 -31.232800 7.102700 -11.641500 -32.270200 6.559500 -23.233000 12.605100 -64.513300 -31.598000 -0.593000 -0.000100 0.000100 109.766400 -27.476000 61.255100 0.926500 0.000000 0.000000 0.000000 0.000000 0.000000 0.000000 6.512500 -2.495400 -10.403500 26.690900 26.097500 -6.466100 -0.000100 0.000000 -124.594600 17.187800 -24.830400 -9.017400 0.000000 0.000000 0.000000 0.000000 0.000000 0.000000 -4.427500 -10.534000 9.678000 15.114100 0.000000 0.000000 -13.748100 1.892600 -0.162600 0.536100 0.000000 0.000000 -15.393300 -10.148500 16.640700 63.431700 0.000000 0.000000 1.010600 2.614900 18.307800 -23.340700 0.000000 0.000000 
-0.278399 -0.744504 0.796900 0.589900 -4.114900 -146.505600 -2.064400 0.104500 -0.053500 -1.700400 0.804000 -0.013500 1.441900 2.465100 -4.947200 0.717900 3.851900 -2.697900 -11.524600 2.648500 -32.396500 6.547300 -12.375400 -34.942800 9.191300 -22.753300 11.972700 -53.113000 -38.387600 -1.006300 -0.000100 0.000100 111.140600 -28.656500 59.021100 2.453100 0.000000 0.000000 0.000000 0.000000 0.000000 0.000000 7.002100 -4.594900 -8.178100 29.509700 26.248200 -4.853000 -0.000100 0.000000 -125.128100 13.830800 -21.508100 -7.765800 0.000000 0.000000 0.000000 0.000000 0.000000 0.000000 -3.207500 -8.847300 14.372800 15.673100 0.000000 0.000000 -13.117200 -0.971400 5.148600 0.269400 0.000000 0.000000 -15.835700 -11.121000 16.330600 58.567000 0.000000 0.000000 -3.485200 1.702200 18.748500 -22.150800 0.000000 0.000000 
